<svg width="19" height="21" viewBox="0 0 19 21" fill="none" xmlns="http://www.w3.org/2000/svg">
<path d="M16.0986 20.0332H2.09863C1.5682 20.0332 1.05949 19.8225 0.684419 19.4474C0.309347 19.0723 0.0986328 18.5636 0.0986328 18.0332V17.0332C0.100221 15.7076 0.627515 14.4368 1.56485 13.4994C2.50219 12.5621 3.77304 12.0348 5.09863 12.0332H13.0986C14.4242 12.0348 15.6951 12.5621 16.6324 13.4994C17.5698 14.4368 18.097 15.7076 18.0986 17.0332V18.0332C18.0986 18.5636 17.8879 19.0723 17.5128 19.4474C17.1378 19.8225 16.6291 20.0332 16.0986 20.0332ZM9.09863 10.0332C8.10973 10.0332 7.14303 9.73996 6.32078 9.19055C5.49854 8.64115 4.85767 7.86025 4.47924 6.94662C4.1008 6.03299 4.00178 5.02766 4.19471 4.05775C4.38763 3.08785 4.86384 2.19693 5.5631 1.49767C6.26236 0.798409 7.15328 0.322205 8.12318 0.129279C9.09309 -0.0636471 10.0984 0.0353695 11.012 0.413808C11.9257 0.792246 12.7066 1.43311 13.256 2.25535C13.8054 3.0776 14.0986 4.0443 14.0986 5.03321C14.097 6.3588 13.5698 7.62965 12.6324 8.56699C11.6951 9.50432 10.4242 10.0316 9.09863 10.0332Z" fill="#F4F3FD"/>
</svg>
