<svg width="17" height="21" viewBox="0 0 17 21" fill="none" xmlns="http://www.w3.org/2000/svg">
<path d="M15.0986 20.5039H3.09863C2.30298 20.5039 1.53992 20.1878 0.977312 19.6252C0.414703 19.0626 0.0986328 18.2996 0.0986328 17.5039L0.0986328 3.50391C0.0986328 2.70826 0.414703 1.94519 0.977312 1.38259C1.53992 0.819977 2.30298 0.503906 3.09863 0.503906L14.0986 0.503906C14.6291 0.503906 15.1378 0.71462 15.5128 1.08969C15.8879 1.46477 16.0986 1.97347 16.0986 2.50391V15.4939C16.0992 15.658 16.0605 15.8199 15.9856 15.9659L15.4406 17.0569C15.3717 17.196 15.3359 17.3492 15.3359 17.5044C15.3359 17.6597 15.3717 17.8128 15.4406 17.9519L15.9846 19.0389C16.0603 19.1822 16.0995 19.3419 16.0986 19.5039C16.0986 19.7691 15.9933 20.0235 15.8057 20.211C15.6182 20.3986 15.3638 20.5039 15.0986 20.5039ZM3.09863 16.5039C2.83342 16.5039 2.57906 16.6093 2.39153 16.7968C2.20399 16.9843 2.09863 17.2387 2.09863 17.5039C2.09863 17.7691 2.20399 18.0235 2.39153 18.211C2.57906 18.3986 2.83342 18.5039 3.09863 18.5039H13.5056C13.2778 17.8567 13.2778 17.1511 13.5056 16.5039H3.09863ZM6.09863 5.50391C5.83342 5.50391 5.57906 5.60926 5.39153 5.7968C5.20399 5.98434 5.09863 6.23869 5.09863 6.50391C5.09863 6.76912 5.20399 7.02348 5.39153 7.21101C5.57906 7.39855 5.83342 7.50391 6.09863 7.50391H10.0986C10.3638 7.50391 10.6182 7.39855 10.8057 7.21101C10.9933 7.02348 11.0986 6.76912 11.0986 6.50391C11.0986 6.23869 10.9933 5.98434 10.8057 5.7968C10.6182 5.60926 10.3638 5.50391 10.0986 5.50391H6.09863Z" fill="#F4F3FD"/>
</svg>
