<svg width="19" height="20" viewBox="0 0 19 20" fill="none" xmlns="http://www.w3.org/2000/svg">
<path d="M10.2986 1.0582L17.2986 6.3082C17.547 6.4945 17.7486 6.73606 17.8875 7.01378C18.0263 7.29149 18.0986 7.59771 18.0986 7.9082V17.4082C18.0986 17.9386 17.8879 18.4473 17.5128 18.8224C17.1378 19.1975 16.6291 19.4082 16.0986 19.4082H2.09863C1.5682 19.4082 1.05949 19.1975 0.684419 18.8224C0.309347 18.4473 0.0986328 17.9386 0.0986328 17.4082V7.9082C0.0986328 7.59771 0.170923 7.29149 0.309778 7.01378C0.448634 6.73606 0.650241 6.4945 0.898633 6.3082L7.89863 1.0582C8.24483 0.798559 8.66589 0.658203 9.09863 0.658203C9.53137 0.658203 9.95244 0.798559 10.2986 1.0582Z" fill="#3D5CFF"/>
</svg>
