<svg width="22" height="22" viewBox="0 0 22 22" fill="none" xmlns="http://www.w3.org/2000/svg">
<path d="M11 20C15.9706 20 20 15.9706 20 11C20 6.02944 15.9706 2 11 2C6.02944 2 2 6.02944 2 11C2 15.9706 6.02944 20 11 20Z" stroke="#F4F3FD" stroke-width="3"/>
<path d="M11.0003 2C12.9183 2.00007 14.786 2.61285 16.3313 3.749C17.877 4.88529 19.0193 6.48579 19.5913 8.317C20.1633 10.1481 20.1353 12.114 19.5113 13.928C18.8873 15.7416 17.7003 17.3084 16.1233 18.4C14.5464 19.4932 12.6613 20.0538 10.7433 20C8.82613 19.9453 6.97656 19.2796 5.46429 18.1C3.95174 16.9201 2.85578 15.2877 2.33629 13.441C1.81685 11.5945 1.90093 9.63034 2.57629 7.835" stroke="#707070" stroke-width="3"/>
</svg>
