<svg width="336" height="97" viewBox="0 0 336 97" fill="none" xmlns="http://www.w3.org/2000/svg">
<path d="M316.099 73.0332H19.0986C17.4418 73.0332 16.0986 74.3763 16.0986 76.0332C16.0986 77.6901 17.4418 79.0332 19.0986 79.0332H316.099C317.755 79.0332 319.099 77.6901 319.099 76.0332C319.099 74.3763 317.755 73.0332 316.099 73.0332Z" fill="#F4F3FD"/>
<path d="M226.099 73.0332V79.0332H19.0986C18.303 79.0332 17.5399 78.7171 16.9773 78.1545C16.4147 77.5919 16.0986 76.8289 16.0986 76.0332V76.0332C16.0986 75.2376 16.4147 74.4745 16.9773 73.9119C17.5399 73.3493 18.303 73.0332 19.0986 73.0332H226.099Z" fill="url(#paint0_linear_19_155)"/>
<defs>
<linearGradient id="paint0_linear_19_155" x1="16.0986" y1="73.0332" x2="228.619" y2="73.0332" gradientUnits="userSpaceOnUse">
<stop stop-color="white" stop-opacity="0"/>
<stop offset="1" stop-color="#FF5106"/>
</linearGradient>
</defs>
</svg>
