<svg width="98" height="97" viewBox="0 0 98 97" fill="none" xmlns="http://www.w3.org/2000/svg">
<path opacity="0.56" d="M49.0286 96.7972C75.6802 96.7972 97.2856 75.1918 97.2856 48.5402C97.2856 21.8886 75.6802 0.283203 49.0286 0.283203C22.377 0.283203 0.771606 21.8886 0.771606 48.5402C0.771606 75.1918 22.377 96.7972 49.0286 96.7972Z" fill="#F5ECFF"/>
<path opacity="0.8" d="M49.0276 84.0402C68.6338 84.0402 84.5276 68.1463 84.5276 48.5402C84.5276 28.9341 68.6338 13.0402 49.0276 13.0402C29.4215 13.0402 13.5276 28.9341 13.5276 48.5402C13.5276 68.1463 29.4215 84.0402 49.0276 84.0402Z" fill="#F8F2FF"/>
<path d="M58.7366 54.2102L61.1746 60.7102C63.2939 59.7101 65.2662 58.4245 67.0366 56.8892C66.6066 55.6362 66.2366 54.6892 66.2366 54.6892L58.7366 54.2102Z" fill="#DA5742"/>
<path d="M39.5856 60.8302L42.1316 54.0372L34.6346 54.5152C34.6266 54.5232 34.1796 55.6692 33.7006 57.1042C35.4825 58.6098 37.4626 59.8635 39.5856 60.8302V60.8302Z" fill="#DA5742"/>
<path d="M58.7366 54.2102L59.5796 56.4192L67.0186 56.8812C66.6136 55.7192 66.2366 54.6882 66.2366 54.6882L58.7366 54.2102Z" fill="#C43D28"/>
<path d="M42.2086 53.7982L41.3626 56.0072L33.8086 56.7412C34.2136 55.5872 34.7086 54.2762 34.7086 54.2762L42.2086 53.7982Z" fill="#C43D28"/>
<path d="M41.8926 44.0362C38.6196 45.5202 35.0316 50.1042 33.7096 55.4792H39.5616L38.5946 60.3602C42.2016 62.1971 46.1928 63.1523 50.2406 63.1472C54.3045 63.1541 58.3113 62.1903 61.9276 60.3362L60.9026 56.1072L66.8206 55.5792C66.8126 55.5792 65.4486 47.9942 59.2086 44.4082C54.2096 41.5382 46.5046 41.9702 41.8926 44.0362Z" fill="#3D5CFF"/>
<path opacity="0.467" d="M42.8176 50.6322C42.6726 53.0152 42.5446 55.3892 42.4046 57.7722C42.3296 59.0992 42.2476 60.4262 42.1726 61.7452C42.1646 61.9022 42.4126 61.9022 42.4206 61.7452C42.5616 59.3712 42.7016 57.0052 42.8336 54.6302C42.9656 52.2552 43.1066 49.8812 43.2466 47.5072C43.3206 46.1962 43.4036 44.8852 43.4776 43.5752C43.4856 43.4182 43.2376 43.4182 43.2296 43.5832C43.0896 45.9332 42.9523 48.2829 42.8176 50.6322Z" fill="#CDECFE"/>
<path opacity="0.467" d="M46.0906 50.5502C46.0406 53.1302 45.9906 55.7192 45.9416 58.2992C45.9176 59.7502 45.8846 61.2092 45.8596 62.6602C45.8596 62.6931 45.8727 62.7246 45.8959 62.7479C45.9192 62.7711 45.9507 62.7842 45.9836 62.7842C46.0165 62.7842 46.048 62.7711 46.0713 62.7479C46.0946 62.7246 46.1076 62.6931 46.1076 62.6602C46.157 60.0715 46.2076 57.4832 46.2596 54.8952L46.4136 47.1532C46.4386 45.7112 46.4716 44.2602 46.4956 42.8172C46.4967 42.7843 46.4846 42.7523 46.4621 42.7283C46.4396 42.7043 46.4085 42.6903 46.3756 42.6892C46.3427 42.6881 46.3108 42.7002 46.2868 42.7227C46.2628 42.7452 46.2487 42.7763 46.2476 42.8092C46.1983 45.3892 46.146 47.9695 46.0906 50.5502Z" fill="#CDECFE"/>
<path opacity="0.467" d="M49.9506 50.5252C49.9926 53.1682 50.0416 55.8172 50.0826 58.4682C50.1076 59.9602 50.1326 61.4612 50.1566 62.9532C50.1566 62.9861 50.1697 63.0176 50.1929 63.0409C50.2162 63.0641 50.2477 63.0772 50.2806 63.0772C50.3135 63.0772 50.345 63.0641 50.3683 63.0409C50.3915 63.0176 50.4046 62.9861 50.4046 62.9532C50.3646 60.3022 50.3186 57.6562 50.2736 55.0092C50.2286 52.3622 50.1826 49.7172 50.1406 47.0682C50.1186 45.5782 50.0916 44.0782 50.0666 42.5852C50.0666 42.5523 50.0535 42.5208 50.0303 42.4975C50.007 42.4743 49.9755 42.4612 49.9426 42.4612C49.9097 42.4612 49.8782 42.4743 49.8549 42.4975C49.8317 42.5208 49.8186 42.5523 49.8186 42.5852C49.8596 45.2322 49.9096 47.8782 49.9506 50.5252Z" fill="#CDECFE"/>
<path opacity="0.467" d="M53.6706 46.3202C53.7446 47.6202 53.8356 48.9252 53.9186 50.2282C54.0096 51.5472 54.1006 52.8582 54.2076 54.1772C54.3076 55.4772 54.4146 56.7902 54.5296 58.0932C54.637 59.3465 54.7526 60.5995 54.8766 61.8522C54.8936 62.0002 54.9096 62.1522 54.9176 62.2972C54.9256 62.4422 55.1816 62.4542 55.1656 62.2972C55.0416 61.0522 54.9256 59.8072 54.8186 58.5712C54.7026 57.2712 54.5956 55.9662 54.4966 54.6712C54.3966 53.3522 54.2966 52.0412 54.2076 50.7222C54.1186 49.4032 54.0346 48.1092 53.9516 46.7982C53.8766 45.5452 53.8026 44.2842 53.7366 43.0312L53.7116 42.5862C53.7036 42.4212 53.4556 42.4212 53.4636 42.5772C53.5296 43.8222 53.5956 45.0672 53.6706 46.3202Z" fill="#CDECFE"/>
<path opacity="0.467" d="M57.8936 50.3112C58.2736 52.6112 58.654 54.9142 59.0346 57.2202C59.2416 58.4732 59.4476 59.7342 59.6546 60.9882C59.6796 61.1452 59.9186 61.0792 59.8946 60.9222C59.5216 58.6542 59.1496 56.3952 58.7746 54.1282C58.3966 51.8282 58.0176 49.5252 57.6376 47.2192C57.4306 45.9622 57.2236 44.7052 57.0176 43.4522C56.9846 43.2952 56.7446 43.3622 56.7746 43.5182C57.1496 45.7852 57.5216 48.0442 57.8936 50.3112Z" fill="#CDECFE"/>
<path opacity="0.467" d="M39.1886 49.1812C38.8886 50.4812 38.6016 51.7942 38.3206 53.0972C38.1556 53.8472 37.9986 54.5982 37.8386 55.3562C37.8056 55.5132 38.0456 55.5792 38.0786 55.4222C38.3546 54.0952 38.6386 52.7762 38.9326 51.4482C39.2216 50.1482 39.5196 48.8352 39.8086 47.5322C39.9826 46.7822 40.1476 46.0322 40.3086 45.2812C40.3104 45.2534 40.3024 45.2259 40.286 45.2035C40.2696 45.181 40.2458 45.165 40.2188 45.1582C40.1919 45.1515 40.1634 45.1543 40.1383 45.1664C40.1132 45.1784 40.0932 45.1989 40.0816 45.2242L39.1886 49.1812Z" fill="#CDECFE"/>
<path opacity="0.467" d="M61.7456 49.4532C62.1676 50.7892 62.5966 52.1322 63.0266 53.4682C63.2666 54.2182 63.5146 54.9682 63.7706 55.7102C63.8206 55.8582 64.0596 55.7922 64.0106 55.6442C63.5646 54.3172 63.1346 52.9812 62.7046 51.6442C62.2746 50.3072 61.8526 48.9672 61.4226 47.6312C61.1836 46.8812 60.9326 46.1312 60.6786 45.3892C60.6326 45.2322 60.3896 45.2992 60.4396 45.4552C60.8856 46.7822 61.3156 48.1172 61.7456 49.4532Z" fill="#CDECFE"/>
<path d="M41.1566 49.9482L37.6766 55.4802L39.6516 55.4722L41.1566 49.9482Z" fill="#224BF4"/>
<path d="M60.9026 56.1062L62.6626 55.9552L58.7366 49.2552L60.9026 56.1062Z" fill="#224BF4"/>
<path d="M39.6356 55.5622C39.6151 55.5561 39.5977 55.5426 39.5868 55.5242C39.5758 55.5059 39.5722 55.4841 39.5766 55.4632L41.2316 49.3462C41.2377 49.3257 41.2512 49.3083 41.2696 49.2974C41.2879 49.2864 41.3097 49.2828 41.3306 49.2872C41.3511 49.2935 41.3685 49.3073 41.3792 49.3258C41.39 49.3444 41.3933 49.3663 41.3886 49.3872L39.7356 55.5052C39.7311 55.5215 39.7215 55.536 39.7082 55.5464C39.6948 55.5568 39.6785 55.5627 39.6616 55.5632L39.6356 55.5622Z" fill="#1F1F39"/>
<path d="M60.7456 56.1062L58.6296 49.2512C58.6261 49.2414 58.6245 49.2309 58.6251 49.2205C58.6257 49.21 58.6284 49.1998 58.6331 49.1904C58.6378 49.1811 58.6443 49.1728 58.6523 49.166C58.6603 49.1593 58.6696 49.1542 58.6796 49.1512C58.6894 49.1476 58.6998 49.146 58.7102 49.1466C58.7206 49.1471 58.7308 49.1497 58.7401 49.1543C58.7495 49.1589 58.7578 49.1653 58.7646 49.1732C58.7714 49.1811 58.7765 49.1903 58.7796 49.2002L60.9026 56.0562C60.9062 56.066 60.9077 56.0765 60.9071 56.0869C60.9065 56.0974 60.9038 56.1076 60.8991 56.1169C60.8945 56.1263 60.8879 56.1346 60.8799 56.1414C60.8719 56.1481 60.8626 56.1532 60.8526 56.1562C60.8356 56.1562 60.8276 56.1642 60.8196 56.1642C60.8027 56.1637 60.7864 56.1578 60.7731 56.1474C60.7597 56.137 60.7501 56.1225 60.7456 56.1062Z" fill="#1F1F39"/>
<path d="M46.3386 39.9802C45.5946 39.8152 45.5116 39.4032 45.5116 39.4032C45.5116 39.4032 45.2636 39.8982 43.7756 39.7332C43.3356 39.672 42.9198 39.4946 42.5711 39.2194C42.2224 38.9442 41.9533 38.581 41.7916 38.1672C41.7916 38.1672 39.9736 37.8372 39.6426 36.8482C39.4545 36.4065 39.3697 35.9276 39.3946 35.4482C38.7311 34.887 38.3157 34.0868 38.2386 33.2212C38.3216 32.0672 38.7386 31.8212 38.7386 31.8212C38.7386 31.8212 38.0776 31.2442 38.2386 30.7492C38.2685 30.6195 38.3297 30.4991 38.4168 30.3985C38.504 30.2979 38.6145 30.2202 38.7386 30.1722C38.7386 30.1722 36.9996 28.4382 37.5776 26.5422C38.1556 24.6462 39.5596 24.6462 39.5596 24.6462C39.4953 24.4373 39.5109 24.212 39.6032 24.014C39.6956 23.8159 39.8582 23.6592 40.0596 23.5742C40.8036 23.1622 41.1336 23.2442 41.1336 23.2442C41.1336 23.2442 40.9686 21.1832 42.0426 20.6882C42.6596 20.3927 43.356 20.306 44.0266 20.4412C44.0266 20.4412 43.9436 19.2872 44.6876 19.2042C44.8872 19.172 45.0918 19.1937 45.2803 19.267C45.4687 19.3403 45.6342 19.4626 45.7596 19.6212C45.7596 19.6212 45.7596 19.2912 46.4206 19.2092C47.0816 19.1272 47.1646 19.3742 47.1646 19.3742C47.2145 18.9095 47.4384 18.4809 47.7911 18.1743C48.1439 17.8678 48.5995 17.7059 49.0666 17.7212C49.5045 17.676 49.9468 17.7431 50.3516 17.9162C50.7564 18.0892 51.1106 18.3625 51.3806 18.7102C51.5282 18.4824 51.7418 18.3051 51.9929 18.202C52.2439 18.0989 52.5205 18.0749 52.7856 18.1332C53.052 18.1632 53.2987 18.288 53.4808 18.4848C53.6629 18.6816 53.7682 18.9373 53.7776 19.2052C54.126 18.9086 54.5492 18.7134 55.0009 18.6408C55.4527 18.5681 55.9157 18.6208 56.3396 18.7932C58.0756 19.2882 58.5716 22.3382 58.5716 22.3382C58.9288 22.2461 59.3065 22.2749 59.6456 22.4202C60.1456 22.6672 60.0586 23.5742 60.0586 23.5742C60.4788 23.5915 60.8842 23.7341 61.2227 23.9835C61.5613 24.233 61.8176 24.578 61.9586 24.9742C62.2896 26.2932 61.9586 26.7882 61.9586 26.7882C62.3777 27.2176 62.6868 27.7419 62.8595 28.3165C63.0322 28.8911 63.0635 29.4989 62.9506 30.0882C62.8299 31.0756 62.396 31.9984 61.7126 32.7212C61.8964 33.2836 61.8964 33.8898 61.7126 34.4522C61.6345 34.6571 61.4998 34.8356 61.3241 34.967C61.1485 35.0984 60.9392 35.1771 60.7206 35.1942C60.7206 35.1942 60.9686 36.3482 60.3896 36.7602C60.2251 36.8807 60.0369 36.965 59.8375 37.0075C59.6381 37.0501 59.4319 37.05 59.2326 37.0072C59.0229 37.6199 58.6754 38.1764 58.2168 38.6338C57.7583 39.0911 57.2009 39.4371 56.5876 39.6452C55.2218 40.0148 53.7728 39.9298 52.4596 39.4032L47.5826 40.1452C47.1635 40.1315 46.7468 40.0762 46.3386 39.9802V39.9802Z" fill="#F99A3D"/>
<path d="M43.8756 32.2312C44.1048 32.3212 44.3215 32.4402 44.5206 32.5852C44.7311 31.2131 45.3077 29.9232 46.1896 28.8512C46.6178 28.3981 47.1909 28.1089 47.8097 28.0337C48.4286 27.9584 49.0543 28.1019 49.5786 28.4392C50.7356 29.3462 51.2316 30.8302 51.9786 30.4182C52.7256 30.0062 53.5486 29.1812 54.3786 29.8412C54.9986 30.3362 55.1056 31.8612 55.1226 32.5862C55.3236 32.4443 55.5399 32.3255 55.7676 32.2322C56.0253 32.1271 56.3065 32.0932 56.5819 32.1339C56.8572 32.1747 57.1165 32.2887 57.3328 32.4639C57.549 32.6392 57.7142 32.8693 57.8111 33.1302C57.908 33.3911 57.933 33.6733 57.8836 33.9472C57.9117 34.2804 57.8552 34.6153 57.7194 34.9209C57.5836 35.2265 57.3728 35.4928 57.1066 35.6952C56.3484 35.9959 55.5289 36.1091 54.7176 36.0252C54.6079 36.512 54.4358 36.9825 54.2056 37.4252C53.7466 38.181 53.1591 38.8507 52.4696 39.4042V41.3582L52.6516 44.0212C52.4827 44.1037 52.3087 44.1752 52.1306 44.2352C51.8928 44.3303 51.6463 44.402 51.3946 44.4492C50.8819 44.5644 50.358 44.6224 49.8326 44.6222C49.3067 44.6307 48.7819 44.5725 48.2706 44.4492C48.0179 44.4059 47.771 44.3341 47.5346 44.2352C47.3565 44.1752 47.1824 44.1037 47.0136 44.0212L47.1956 41.3582V39.4032C46.5047 38.8504 45.9158 38.1809 45.4556 37.4252C45.1963 37.0072 45.0451 36.5312 45.0156 36.0402C44.1758 36.1573 43.3199 36.0374 42.5446 35.6942C42.2752 35.494 42.0613 35.2285 41.9233 34.9226C41.7852 34.6167 41.7275 34.2806 41.7556 33.9462C41.705 33.6717 41.7295 33.3886 41.8263 33.1268C41.9231 32.865 42.0888 32.6341 42.3058 32.4585C42.5228 32.283 42.7832 32.1692 43.0595 32.1292C43.3357 32.0892 43.6177 32.1244 43.8756 32.2312V32.2312Z" fill="#DA5742"/>
<path d="M47.1735 41.3652L47.1075 42.3882C48.03 42.3122 48.9381 42.1127 49.8075 41.7952C50.7509 41.4454 51.6419 40.968 52.4555 40.3762V39.4032C50.9675 40.3102 47.8265 39.9802 47.1735 39.3952V41.3652Z" fill="#C43D28"/>
<path d="M47.1155 39.4532C47.0984 39.4359 47.0881 39.413 47.0866 39.3887C47.0851 39.3644 47.0926 39.3404 47.1075 39.3212C47.1156 39.3118 47.1254 39.3042 47.1364 39.2987C47.1475 39.2932 47.1595 39.29 47.1718 39.2892C47.1842 39.2885 47.1965 39.2902 47.2081 39.2943C47.2198 39.2984 47.2304 39.3049 47.2395 39.3132C48.1587 39.7766 49.1919 39.9654 50.2155 39.8572C50.2276 39.8555 50.2398 39.8563 50.2515 39.8595C50.2632 39.8628 50.274 39.8685 50.2834 39.8763C50.2927 39.884 50.3004 39.8936 50.3058 39.9044C50.3112 39.9153 50.3143 39.9272 50.3149 39.9393C50.3154 39.9514 50.3134 39.9635 50.309 39.9748C50.3046 39.9861 50.2979 39.9964 50.2893 40.005C50.2807 40.0135 50.2704 40.0202 50.2591 40.0245C50.2478 40.0289 50.2357 40.0308 50.2235 40.0302C50.1007 40.0508 49.9761 40.0592 49.8515 40.0552C48.9007 40.1211 47.9509 39.9121 47.1155 39.4532V39.4532Z" fill="#1F1F39"/>
<path d="M55.2076 32.5192C55.2138 33.2237 55.1501 33.9272 55.0176 34.6192C54.9596 34.9932 54.7536 35.6932 54.6536 36.0562C55.487 36.1531 56.3312 36.0279 57.1006 35.6932C57.3654 35.4896 57.5752 35.223 57.7108 34.9178C57.8465 34.6125 57.9038 34.2782 57.8776 33.9452C57.9261 33.6715 57.9004 33.3898 57.8032 33.1294C57.706 32.869 57.5409 32.6393 57.3249 32.4644C57.1089 32.2894 56.85 32.1755 56.575 32.1345C56.3001 32.0935 56.0192 32.1269 55.7616 32.2312C55.5693 32.3119 55.384 32.4082 55.2076 32.5192V32.5192Z" fill="#C43D28"/>
<path d="M45.4386 37.4252C45.4466 37.4412 45.4626 37.4662 45.4716 37.4822C45.3886 37.3182 45.3056 37.1532 45.2316 36.9962C45.2896 37.1282 45.3556 37.2682 45.4386 37.4252Z" fill="#C43D28"/>
<path d="M43.8676 32.2312C43.6096 32.1251 43.3279 32.0904 43.052 32.1307C42.776 32.171 42.516 32.2848 42.2992 32.4602C42.0824 32.6356 41.9167 32.8662 41.8197 33.1276C41.7226 33.3891 41.6977 33.6718 41.7476 33.9462C41.7201 34.2796 41.7772 34.6146 41.9138 34.92C42.0503 35.2254 42.2618 35.4913 42.5286 35.6932C43.2813 36.034 44.1146 36.1567 44.9336 36.0472C44.6984 34.8787 44.5219 33.6993 44.4046 32.5132C44.2348 32.4025 44.055 32.3081 43.8676 32.2312V32.2312Z" fill="#C43D28"/>
<path d="M44.6036 35.3032C44.5457 34.9016 44.3833 34.5222 44.1326 34.2032C43.7916 33.7649 43.3242 33.4419 42.7936 33.2782C42.7716 33.271 42.7529 33.2564 42.7405 33.2368C42.7281 33.2173 42.7228 33.1941 42.7256 33.1712C42.7329 33.1489 42.7478 33.1298 42.7677 33.1174C42.7876 33.1049 42.8113 33.0999 42.8346 33.1032C43.4156 33.2677 43.9248 33.6223 44.2806 34.1102C44.5551 34.4562 44.7282 34.8716 44.7806 35.3102C44.7822 35.3218 44.7813 35.3337 44.7778 35.3449C44.7743 35.3562 44.7684 35.3665 44.7605 35.3752C44.7525 35.3839 44.7428 35.3907 44.7319 35.3952C44.7211 35.3997 44.7093 35.4017 44.6976 35.4012C44.6848 35.4015 44.6721 35.3991 44.6603 35.3943C44.6485 35.3894 44.6378 35.3821 44.629 35.3729C44.6201 35.3637 44.6133 35.3527 44.6089 35.3407C44.6046 35.3287 44.6027 35.3159 44.6036 35.3032Z" fill="#1F1F39"/>
<path d="M54.9596 35.3052C55.0158 34.8676 55.1885 34.4532 55.4596 34.1052C55.8205 33.6247 56.3258 33.2725 56.9016 33.1002C56.9133 33.0964 56.9257 33.0953 56.938 33.0969C56.9502 33.0985 56.9619 33.1028 56.9722 33.1095C56.9826 33.1162 56.9913 33.1252 56.9977 33.1357C57.0042 33.1462 57.0082 33.158 57.0096 33.1702C57.0134 33.1816 57.0146 33.1936 57.0132 33.2055C57.0118 33.2174 57.0078 33.2289 57.0016 33.2391C56.9953 33.2493 56.9868 33.258 56.9768 33.2646C56.9668 33.2712 56.9554 33.2755 56.9436 33.2772C56.4074 33.4333 55.9371 33.7606 55.6046 34.2092C55.3539 34.5282 55.1914 34.9076 55.1336 35.3092C55.1352 35.3208 55.1343 35.3327 55.1308 35.3439C55.1273 35.3552 55.1214 35.3655 55.1135 35.3742C55.1055 35.3829 55.0958 35.3897 55.0849 35.3942C55.0741 35.3987 55.0623 35.4008 55.0506 35.4002C55.0383 35.4001 55.0262 35.3975 55.015 35.3926C55.0037 35.3878 54.9936 35.3807 54.9851 35.3718C54.9766 35.363 54.97 35.3525 54.9656 35.3411C54.9612 35.3297 54.9592 35.3174 54.9596 35.3052V35.3052Z" fill="#1F1F39"/>
<path d="M47.1656 32.5612C47.1656 32.5612 47.2316 31.9012 47.7116 31.9012C48.1916 31.9012 48.2576 32.5612 48.2576 32.5612" fill="white"/>
<path d="M51.3556 32.5612C51.3556 32.5612 51.4216 31.9012 51.9016 31.9012C52.3816 31.9012 52.4476 32.5612 52.4476 32.5612" fill="white"/>
<path d="M49.8106 33.7392C49.7513 33.8792 49.7097 34.026 49.6866 34.1762C49.6742 34.2385 49.686 34.3033 49.7196 34.3572C49.7196 34.3652 49.7276 34.3652 49.7276 34.3732L49.7446 34.3892C49.7571 34.3993 49.7709 34.4077 49.7856 34.4142C49.8122 34.4336 49.8437 34.445 49.8766 34.4472C50.0266 34.4569 50.1762 34.4221 50.3066 34.3472C50.2551 34.4124 50.1903 34.4659 50.1166 34.5042C50.0384 34.5491 49.9485 34.5697 49.8586 34.5632C49.8127 34.5582 49.7682 34.5443 49.7276 34.5222C49.7052 34.5134 49.6853 34.4994 49.6696 34.4812L49.6446 34.4562C49.6343 34.4468 49.6258 34.4356 49.6196 34.4232C49.565 34.3437 49.5432 34.2463 49.5586 34.1512C49.57 34.0653 49.5936 33.9815 49.6286 33.9022C49.6536 33.8302 49.6946 33.7552 49.7276 33.6812C49.8017 33.5455 49.8906 33.4184 49.9926 33.3022C49.9256 33.4502 49.8686 33.6022 49.8106 33.7392Z" fill="#1F1F39"/>
<path d="M49.2316 35.7102C49.3293 35.9361 49.499 36.1234 49.7142 36.2428C49.9295 36.3622 50.1782 36.407 50.4216 36.3702C51.1316 36.2702 51.2156 35.4462 51.2156 35.4462" fill="white"/>
<path d="M47.7846 34.3742C47.6267 34.3563 47.4821 34.2773 47.3818 34.1541C47.2814 34.031 47.2332 33.8734 47.2476 33.7152C47.233 33.5568 47.281 33.399 47.3814 33.2756C47.4818 33.1522 47.6265 33.0731 47.7846 33.0552C47.9426 33.0731 48.0874 33.1522 48.1878 33.2756C48.2881 33.399 48.3362 33.5568 48.3216 33.7152C48.3359 33.8734 48.2877 34.031 48.1874 34.1541C48.087 34.2773 47.9424 34.3563 47.7846 34.3742V34.3742Z" fill="#1F1F39"/>
<path d="M51.9176 34.3742C51.7597 34.3563 51.6151 34.2773 51.5148 34.1541C51.4144 34.031 51.3662 33.8734 51.3806 33.7152C51.3659 33.5568 51.414 33.399 51.5144 33.2756C51.6148 33.1522 51.7595 33.0731 51.9176 33.0552C52.0756 33.0731 52.2204 33.1522 52.3208 33.2756C52.4211 33.399 52.4692 33.5568 52.4546 33.7152C52.4689 33.8734 52.4207 34.031 52.3204 34.1541C52.22 34.2773 52.0754 34.3563 51.9176 34.3742V34.3742Z" fill="#1F1F39"/>
<path d="M54.6952 35.2167C54.6572 35.661 53.9997 35.9681 53.2265 35.902C52.4533 35.8358 51.8575 35.4215 51.8955 34.9771C51.9335 34.5328 52.5911 34.2257 53.3642 34.2918C54.1374 34.358 54.7333 34.7723 54.6952 35.2167Z" fill="#C43D28"/>
<path d="M47.999 35.2163C47.9611 35.6605 47.3039 35.9676 46.531 35.9016C45.7581 35.8357 45.1624 35.4216 45.2003 34.9774C45.2382 34.5332 45.8954 34.2261 46.6683 34.2921C47.4412 34.358 48.0369 34.7721 47.999 35.2163Z" fill="#C43D28"/>
<path d="M23.7677 39.8332C20.9917 41.2692 19.8537 45.2792 18.4617 47.4242C17.7296 48.7939 16.693 49.9772 15.4317 50.8832C14.7098 51.361 13.8715 51.6334 13.0067 51.6712C13.0067 51.6712 15.4067 57.6952 24.6517 58.7552C33.8967 59.8152 38.8517 56.6892 40.7277 55.4102C41.935 54.5366 42.9337 53.4061 43.6517 52.1002C43.6517 52.1002 39.2997 51.1372 38.0657 47.1352C36.8317 43.1332 35.0897 40.3062 32.3927 39.8592C31.0421 39.5255 29.6173 39.6741 28.3647 40.2792C27.7491 39.7189 26.9688 39.3727 26.1403 39.2923C25.3118 39.2119 24.4795 39.4017 23.7677 39.8332Z" fill="#1F1F39"/>
<path d="M37.0686 71.8802L39.6516 78.7802C41.8964 77.7188 43.9852 76.3547 45.8596 74.7262C45.4046 73.3952 45.0106 72.3882 45.0106 72.3882L37.0686 71.8802Z" fill="#F9D2DD"/>
<path d="M16.7806 78.9112L19.4776 71.6962L11.5356 72.2042C11.5276 72.2132 11.0546 73.4302 10.5466 74.9532C12.4334 76.552 14.5311 77.8838 16.7806 78.9112V78.9112Z" fill="#F9D2DD"/>
<path d="M37.0686 71.8802L37.9616 74.2272L45.8416 74.7172C45.4126 73.4802 45.0106 72.3882 45.0106 72.3882L37.0686 71.8802Z" fill="#F9ACC0"/>
<path d="M19.5606 71.4422L18.6606 73.7892L10.6606 74.5682C11.0896 73.3422 11.6146 71.9502 11.6146 71.9502L19.5606 71.4422Z" fill="#F9ACC0"/>
<path d="M19.2326 61.0752C15.7656 62.6422 11.9556 67.5062 10.5556 73.2192H16.7556L15.7306 78.4062C19.5464 80.3548 23.771 81.368 28.0556 81.3622C32.3605 81.3679 36.6048 80.3474 40.4366 78.3852L39.3556 73.8932L45.6246 73.3332C45.6246 73.3422 44.1796 65.2862 37.5776 61.4772C32.2876 58.4222 24.1186 58.8772 19.2326 61.0752Z" fill="#3D5CFF"/>
<path d="M18.4446 67.3532L14.7586 73.2282L16.8516 73.2192L18.4446 67.3532Z" fill="#224BF4"/>
<path d="M39.3626 73.8932L41.2276 73.7352L37.0686 66.6172L39.3626 73.8932Z" fill="#224BF4"/>
<path d="M16.8336 73.3162C16.8118 73.3099 16.7932 73.2955 16.7815 73.2761C16.7698 73.2566 16.7659 73.2334 16.7706 73.2112L18.5236 66.7142C18.5299 66.6924 18.5443 66.6738 18.5637 66.6621C18.5832 66.6504 18.6064 66.6465 18.6286 66.6512C18.6501 66.6579 18.6682 66.6724 18.6795 66.6919C18.6908 66.7113 18.6944 66.7342 18.6896 66.7562L16.9386 73.2512C16.9337 73.2685 16.9234 73.2837 16.9092 73.2947C16.8949 73.3057 16.8776 73.3118 16.8596 73.3122L16.8336 73.3162Z" fill="#1F1F39"/>
<path d="M39.1966 73.8942L36.9546 66.6182C36.9509 66.6078 36.9493 66.5967 36.95 66.5857C36.9506 66.5746 36.9535 66.5638 36.9585 66.5539C36.9634 66.544 36.9703 66.5352 36.9788 66.528C36.9872 66.5209 36.9971 66.5155 37.0076 66.5122C37.018 66.5086 37.029 66.5072 37.0399 66.5079C37.0509 66.5086 37.0615 66.5116 37.0713 66.5165C37.0811 66.5215 37.0898 66.5283 37.0969 66.5367C37.104 66.545 37.1094 66.5547 37.1126 66.5652L39.3496 73.8412C39.3532 73.8516 39.3547 73.8626 39.3539 73.8735C39.3532 73.8844 39.3503 73.8951 39.3453 73.9049C39.3404 73.9147 39.3335 73.9234 39.3252 73.9305C39.3168 73.9376 39.3071 73.9429 39.2966 73.9462C39.2876 73.9462 39.2796 73.9552 39.2706 73.9552C39.2535 73.9538 39.2373 73.9472 39.2241 73.9363C39.2108 73.9254 39.2013 73.9107 39.1966 73.8942V73.8942Z" fill="#1F1F39"/>
<path d="M34.7836 48.2742C34.5408 48.3702 34.3113 48.4969 34.1006 48.6512C34.0985 48.1685 34.0721 47.6863 34.0216 47.2062L32.2876 47.1882L32.1826 46.1462L31.9726 47.1882L29.3196 47.1622L29.2056 46.1462L29.0216 47.1532L24.6466 47.1092L24.4686 45.2882L24.2236 47.1092L22.8926 47.1002C22.8926 47.1002 22.8756 47.8272 22.8756 48.6412C22.6629 48.4905 22.4338 48.3644 22.1926 48.2652C21.9189 48.1526 21.6198 48.1159 21.3269 48.1589C21.0339 48.2019 20.758 48.323 20.5282 48.5096C20.2983 48.6962 20.123 48.9413 20.0207 49.2191C19.9183 49.4969 19.8928 49.7971 19.9466 50.0882C19.9175 50.442 19.978 50.7974 20.1225 51.1216C20.2671 51.4459 20.491 51.7284 20.7736 51.9432C21.5616 52.3149 22.4425 52.4431 23.3036 52.3112C23.3957 52.8313 23.5829 53.3299 23.8556 53.7822C24.3417 54.584 24.964 55.2946 25.6946 55.8822V57.9582L25.5016 60.7882C25.6805 60.8761 25.8649 60.9523 26.0536 61.0162C26.3053 61.1174 26.5662 61.1938 26.8326 61.2442C27.3758 61.3667 27.9309 61.4284 28.4876 61.4282C29.0449 61.4371 29.601 61.3753 30.1426 61.2442C30.4101 61.198 30.6715 61.1215 30.9216 61.0162C31.1104 60.9523 31.2948 60.8761 31.4736 60.7882L31.2806 57.9602V55.8882C32.0113 55.3006 32.6336 54.59 33.1196 53.7882C33.3685 53.3193 33.5513 52.8182 33.6626 52.2992C34.5219 52.3884 35.3899 52.2683 36.1926 51.9492C36.4772 51.7356 36.7028 51.4533 36.8483 51.1287C36.9939 50.804 37.0545 50.4477 37.0246 50.0932C37.0775 49.8029 37.0514 49.5038 36.949 49.2271C36.8466 48.9504 36.6717 48.7063 36.4426 48.5203C36.2135 48.3344 35.9387 48.2134 35.6468 48.1701C35.355 48.1268 35.0568 48.1628 34.7836 48.2742V48.2742Z" fill="#F9D2DD"/>
<path d="M22.2006 48.2742C21.9271 48.162 21.6283 48.1255 21.3358 48.1686C21.0432 48.2116 20.7677 48.3326 20.5381 48.5189C20.3084 48.7052 20.1332 48.9498 20.0307 49.2272C19.9282 49.5045 19.9023 49.8044 19.9556 50.0952C19.9266 50.4488 19.9872 50.8041 20.1318 51.1281C20.2763 51.4521 20.5001 51.7345 20.7826 51.9492C21.566 52.3161 22.4391 52.4471 23.2956 52.3262C23.2956 52.3262 23.1206 51.3492 22.9896 50.3762C22.9147 49.8037 22.8793 49.2266 22.8836 48.6492C22.6708 48.4989 22.4417 48.3731 22.2006 48.2742V48.2742Z" fill="#F9ACC0"/>
<path d="M34.1087 48.6492C34.1099 49.1965 34.0835 49.7435 34.0297 50.2882C33.9167 51.2862 33.6887 52.3022 33.6887 52.3022C34.5455 52.3895 35.4107 52.2684 36.2107 51.9492C36.4913 51.7326 36.7135 51.4495 36.8571 51.1254C37.0008 50.8014 37.0615 50.4466 37.0337 50.0932C37.0859 49.8027 37.0592 49.5034 36.9563 49.2267C36.8534 48.95 36.6782 48.706 36.4488 48.5202C36.2194 48.3343 35.9444 48.2135 35.6524 48.1702C35.3603 48.1269 35.0621 48.1629 34.7887 48.2742C34.547 48.3698 34.3185 48.4958 34.1087 48.6492V48.6492Z" fill="#F9ACC0"/>
<path d="M22.7967 51.5392C22.7292 51.0557 22.5392 50.5975 22.2447 50.2082C21.8523 49.6724 21.2958 49.2791 20.6597 49.0882C20.6323 49.08 20.609 49.062 20.5942 49.0376C20.5794 49.0132 20.5743 48.9842 20.5797 48.9562C20.5878 48.9287 20.606 48.9052 20.6306 48.8904C20.6552 48.8756 20.6845 48.8705 20.7127 48.8762C21.4013 49.0816 22.0019 49.5105 22.4197 50.0952C22.7428 50.5147 22.9457 51.0142 23.0067 51.5402C23.0067 51.5681 22.9956 51.5948 22.9759 51.6145C22.9562 51.6341 22.9295 51.6452 22.9017 51.6452C22.8738 51.6452 22.8471 51.6341 22.8274 51.6145C22.8077 51.5948 22.7967 51.5681 22.7967 51.5402V51.5392Z" fill="#1F1F39"/>
<path d="M34.2226 51.4172C34.1961 51.4042 34.1756 51.3814 34.1657 51.3535C34.1558 51.3257 34.1572 51.295 34.1696 51.2682C34.4589 50.6981 34.8257 50.1707 35.2596 49.7012C35.5544 49.3409 35.9488 49.0755 36.3936 48.9382C36.4076 48.9348 36.4221 48.9345 36.4362 48.9373C36.4502 48.94 36.4636 48.9457 36.4752 48.9541C36.4869 48.9624 36.4966 48.9732 36.5038 48.9856C36.5109 48.9981 36.5153 49.0119 36.5166 49.0262C36.52 49.0402 36.5203 49.0547 36.5176 49.0687C36.5148 49.0828 36.5091 49.0962 36.5007 49.1078C36.4924 49.1195 36.4816 49.1292 36.4692 49.1364C36.4567 49.1435 36.4429 49.1479 36.4286 49.1492C36.0315 49.2837 35.6797 49.5261 35.4126 49.8492C34.9932 50.3001 34.6388 50.8073 34.3596 51.3562C34.3515 51.3763 34.3377 51.3936 34.32 51.406C34.3022 51.4185 34.2813 51.4255 34.2596 51.4262C34.2467 51.4269 34.2338 51.4238 34.2226 51.4172V51.4172Z" fill="#1F1F39"/>
<path d="M32.1477 52.4502C31.3787 52.4502 30.7557 52.0582 30.7557 51.5752C30.7557 51.0922 31.3787 50.6992 32.1477 50.6992C32.9167 50.6992 33.5397 51.0912 33.5397 51.5752C33.5397 52.0592 32.9167 52.4502 32.1477 52.4502Z" fill="#F9ACC0"/>
<path d="M24.7837 52.4502C24.0147 52.4502 23.3917 52.0582 23.3917 51.5752C23.3917 51.0922 24.0147 50.6992 24.7837 50.6992C25.5527 50.6992 26.1757 51.0912 26.1757 51.5752C26.1757 52.0592 25.5527 52.4502 24.7837 52.4502Z" fill="#F9ACC0"/>
<path d="M26.7536 56.2442C26.3887 56.1927 26.0324 56.0918 25.6946 55.9442V57.9672L25.6066 59.2272C25.8771 59.2066 26.1428 59.1449 26.3946 59.0442C27.9443 58.3127 29.3665 57.3369 30.6066 56.1542C29.3275 56.2981 28.0381 56.3282 26.7536 56.2442V56.2442Z" fill="#F9ACC0"/>
<path d="M25.0737 47.9682C25.2233 47.8619 25.4077 47.8162 25.5897 47.8402C25.7703 47.8535 25.9435 47.9173 26.0897 48.0242C26.1621 48.0783 26.2201 48.1494 26.2587 48.2311C26.2972 48.3129 26.3151 48.4029 26.3107 48.4932C26.253 48.3481 26.1471 48.2272 26.0107 48.1512C25.8765 48.0843 25.731 48.0429 25.5817 48.0292C25.4358 48.0137 25.2884 48.0346 25.1527 48.0902C25.013 48.1634 24.8951 48.2721 24.8107 48.4052C24.8216 48.318 24.8506 48.2341 24.8959 48.1588C24.9412 48.0836 25.0017 48.0186 25.0737 47.9682V47.9682Z" fill="#1F1F39"/>
<path d="M30.9396 48.0902C31.0968 48.0036 31.2797 47.9756 31.4556 48.0112C31.5441 48.0227 31.6294 48.0516 31.7066 48.0962C31.7847 48.1401 31.8528 48.1997 31.9066 48.2712C32.0201 48.4042 32.0837 48.5725 32.0866 48.7472C32.018 48.6075 31.9229 48.4826 31.8066 48.3792C31.7559 48.3302 31.6961 48.2915 31.6306 48.2652C31.5956 48.2562 31.5696 48.2392 31.5346 48.2302L31.4296 48.2042C31.2866 48.1779 31.1394 48.1868 31.0006 48.2302C30.8499 48.2706 30.7134 48.3524 30.6066 48.4662C30.6644 48.3023 30.7839 48.1674 30.9396 48.0902V48.0902Z" fill="#1F1F39"/>
<path d="M28.5227 50.0862C28.4293 50.2894 28.3644 50.5044 28.3297 50.7252C28.3223 50.7775 28.3193 50.8304 28.3207 50.8832C28.3243 50.9336 28.333 50.9835 28.3467 51.0322C28.3706 51.1238 28.4271 51.2034 28.5057 51.2562C28.597 51.3122 28.6993 51.348 28.8057 51.3612C28.9183 51.3803 29.0327 51.3863 29.1467 51.3792C29.0355 51.4277 28.9159 51.4538 28.7947 51.4562C28.6675 51.4595 28.5413 51.4324 28.4267 51.3772C28.3049 51.3128 28.2135 51.2028 28.1727 51.0712C28.1522 51.0074 28.1404 50.9411 28.1377 50.8742C28.1363 50.8097 28.1393 50.7453 28.1467 50.6812C28.1874 50.444 28.2704 50.2161 28.3917 50.0082C28.5049 49.8077 28.643 49.6222 28.8027 49.4562C28.7067 49.6662 28.6107 49.8762 28.5227 50.0862Z" fill="#1F1F39"/>
<path d="M26.3142 50.1057C26.3089 50.2872 26.2328 50.4593 26.1022 50.5853C25.9715 50.7113 25.7967 50.7811 25.6152 50.7797C25.4386 50.7378 25.2855 50.6284 25.1886 50.4749C25.0917 50.3214 25.0589 50.1361 25.097 49.9586C25.1022 49.7772 25.1783 49.6051 25.309 49.4791C25.4396 49.3531 25.6144 49.2833 25.7959 49.2846C25.9725 49.3265 26.1257 49.436 26.2225 49.5895C26.3194 49.7429 26.3523 49.9283 26.3142 50.1057V50.1057Z" fill="#1F1F39"/>
<path d="M31.9251 50.2217C31.9199 50.4032 31.8438 50.5753 31.7132 50.7013C31.5825 50.8273 31.4077 50.8971 31.2262 50.8957C31.0496 50.8538 30.8965 50.7444 30.7996 50.5909C30.7027 50.4374 30.6698 50.2521 30.708 50.0746C30.7132 49.8932 30.7893 49.721 30.9199 49.5951C31.0506 49.4691 31.2254 49.3993 31.4069 49.4006C31.5835 49.4425 31.7366 49.552 31.8335 49.7055C31.9304 49.8589 31.9633 50.0443 31.9251 50.2217V50.2217Z" fill="#1F1F39"/>
<path d="M28.3037 52.2142H29.1097C29.2757 52.2142 29.4687 52.2142 29.7317 52.2232C29.7245 52.3478 29.6853 52.4683 29.6177 52.5732C29.556 52.677 29.476 52.7689 29.3817 52.8442C29.1855 53.0021 28.9415 53.0885 28.6897 53.0892C28.5579 53.0881 28.4274 53.0644 28.3037 53.0192C28.1806 52.9749 28.0675 52.907 27.9707 52.8192C27.8758 52.731 27.8014 52.6232 27.7527 52.5032C27.7086 52.3825 27.6996 52.2518 27.7267 52.1262C27.9158 52.1737 28.109 52.2032 28.3037 52.2142V52.2142Z" fill="#DA5742"/>
<path d="M25.2827 55.8562C25.2644 55.838 25.2533 55.8137 25.2517 55.7879C25.25 55.7621 25.2578 55.7366 25.2737 55.7162C25.2911 55.6966 25.3156 55.6847 25.3418 55.683C25.368 55.6814 25.3938 55.69 25.4137 55.7072C26.3874 56.1984 27.4822 56.398 28.5667 56.2822C28.5911 56.281 28.6149 56.2896 28.633 56.306C28.6511 56.3224 28.662 56.3453 28.6632 56.3697C28.6644 56.3941 28.6558 56.418 28.6394 56.4361C28.623 56.4542 28.6001 56.465 28.5757 56.4662C28.4455 56.4879 28.3135 56.4966 28.1817 56.4922C27.1743 56.5633 26.1678 56.3425 25.2827 55.8562V55.8562Z" fill="#1F1F39"/>
<path opacity="0.55" d="M35.4046 64.8922C34.9028 64.6474 34.4813 64.2644 34.1897 63.7882C33.8981 63.312 33.7486 62.7625 33.7586 62.2042C33.6843 61.4698 33.6991 60.7291 33.8026 59.9982C33.811 59.9524 33.8363 59.9115 33.8736 59.8836C33.9109 59.8558 33.9574 59.8431 34.0036 59.8482C34.049 59.8567 34.0896 59.882 34.1172 59.9191C34.1448 59.9562 34.1574 60.0022 34.1526 60.0482C34.055 60.7511 34.0419 61.4632 34.1136 62.1692C34.1028 62.6638 34.2318 63.1515 34.4859 63.5761C34.7399 64.0007 35.1086 64.3449 35.5496 64.5692C36.7136 65.0762 38.5926 64.6212 40.1066 63.4562C40.125 63.4424 40.1459 63.4324 40.1682 63.4267C40.1905 63.421 40.2136 63.4197 40.2364 63.423C40.2591 63.4262 40.281 63.4339 40.3008 63.4456C40.3206 63.4573 40.3378 63.4728 40.3516 63.4912C40.3654 63.5096 40.3755 63.5305 40.3812 63.5528C40.3869 63.575 40.3881 63.5982 40.3849 63.6209C40.3816 63.6437 40.3739 63.6656 40.3622 63.6854C40.3505 63.7051 40.335 63.7224 40.3166 63.7362C39.2836 64.5854 38.0018 65.0745 36.6656 65.1292C36.2336 65.1368 35.8045 65.0562 35.4046 64.8922V64.8922Z" fill="#EAEAFF"/>
<path opacity="0.55" d="M44.2226 70.1552L44.0126 70.0552C40.5446 68.4482 37.2706 66.9242 36.6596 63.1772C36.5351 62.4709 36.5283 61.7488 36.6396 61.0402C36.643 61.0173 36.651 60.9953 36.6631 60.9756C36.6752 60.9559 36.6911 60.9388 36.71 60.9255C36.7289 60.9121 36.7503 60.9027 36.7729 60.8978C36.7955 60.893 36.8189 60.8928 36.8416 60.8972C36.864 60.9009 36.8855 60.9091 36.9047 60.9212C36.924 60.9334 36.9406 60.9492 36.9536 60.9678C36.9666 60.9864 36.9758 61.0075 36.9806 61.0297C36.9855 61.0519 36.9858 61.0749 36.9816 61.0972C36.8765 61.7695 36.8852 62.4548 37.0076 63.1242C37.5946 66.6882 40.7816 68.1762 44.1696 69.7442L44.3796 69.8442C44.4211 69.8655 44.453 69.9015 44.4693 69.9452C44.4856 69.9888 44.485 70.037 44.4676 70.0802C44.4242 70.1346 44.3616 70.1704 44.2926 70.1802C44.2677 70.1773 44.2438 70.1688 44.2226 70.1552Z" fill="#EAEAFF"/>
<path opacity="0.55" d="M39.5986 78.7622L39.2676 78.6622C39.4448 78.0106 39.4731 77.3274 39.3504 76.6634C39.2277 75.9993 38.9571 75.3714 38.5586 74.8262C37.2869 73.2138 35.5253 72.0587 33.5396 71.5352C32.4137 71.1606 31.2361 70.9646 30.0496 70.9542C29.254 70.9496 28.4617 71.058 27.6966 71.2762C27.0447 71.4617 26.4309 71.7613 25.8836 72.1612C26.5146 72.2232 27.1836 72.2692 27.7736 72.3092C31.1736 72.5552 34.3926 72.7862 35.1566 75.0772C35.3255 75.503 35.3585 75.9706 35.2511 76.4159C35.1437 76.8612 34.9011 77.2623 34.5566 77.5642C33.661 78.2551 32.5521 78.6113 31.4216 78.5712H31.2736C29.7807 78.542 28.3103 78.2014 26.9566 77.5712C25.9875 77.1993 25.1625 76.5277 24.6016 75.6542C24.4043 75.3247 24.2858 74.9541 24.2555 74.5712C24.2251 74.1884 24.2837 73.8037 24.4266 73.4472C24.576 73.068 24.7959 72.7206 25.0746 72.4232C23.4336 72.2232 21.4026 71.8282 20.2586 70.6232C19.8998 70.2352 19.6368 69.7685 19.4907 69.2606C19.3447 68.7527 19.3197 68.2176 19.4176 67.6982C18.6505 67.6787 17.8848 67.6203 17.1236 67.5232C15.8641 67.3977 14.6457 67.0054 13.5496 66.3722L13.7256 66.0662C14.7772 66.6753 15.9478 67.0505 17.1576 67.1662C17.9275 67.2633 18.7018 67.3217 19.4776 67.3412C19.7916 66.0994 20.4257 64.9615 21.3166 64.0412C22.121 63.1399 23.1515 62.4699 24.3016 62.1002C24.66 61.9936 25.0317 61.9381 25.4056 61.9352C26.1376 61.9287 26.8474 62.1857 27.4056 62.6592C27.6825 62.8744 27.8767 63.1785 27.9556 63.5202C28.0345 63.8619 27.9932 64.2204 27.8386 64.5352C27.4664 65.1523 26.9751 65.689 26.3932 66.1142C25.8113 66.5393 25.1506 66.8442 24.4496 67.0112C22.9471 67.4897 21.3774 67.7234 19.8006 67.7032H19.7746C19.676 68.1754 19.6904 68.6643 19.8167 69.1299C19.9431 69.5955 20.1778 70.0246 20.5016 70.3822C21.6196 71.5572 23.7016 71.9252 25.3866 72.1152C26.717 71.0803 28.3704 70.549 30.0546 70.6152C31.2782 70.6244 32.4928 70.8244 33.6546 71.2082C35.71 71.7617 37.5319 72.9635 38.8496 74.6352C39.2715 75.2245 39.5571 75.9002 39.686 76.6134C39.8148 77.3266 39.7836 78.0595 39.5946 78.7592L39.5986 78.7622ZM25.4986 72.4752C25.1658 72.7781 24.9054 73.152 24.7366 73.5692C24.2026 74.9612 25.0836 76.3392 27.0926 77.2552C28.4265 77.8674 29.8722 78.1983 31.3396 78.2272C32.4079 78.2953 33.4639 77.9682 34.3066 77.3082C34.6022 77.0522 34.8102 76.7101 34.9013 76.3298C34.9924 75.9496 34.9621 75.5503 34.8146 75.1882C34.1216 73.1162 31.0216 72.8942 27.7396 72.6582C26.9706 72.6132 26.2166 72.5512 25.4986 72.4742V72.4752ZM25.3346 62.3002C24.5996 62.3482 23.8829 62.55 23.2309 62.8927C22.5788 63.2353 22.0061 63.7111 21.5496 64.2892C20.7252 65.1481 20.1327 66.2024 19.8276 67.3532C21.3513 67.3741 22.8682 67.1464 24.3186 66.6792C25.6346 66.3588 26.7745 65.5395 27.4976 64.3942C27.6233 64.1508 27.6588 63.8709 27.5979 63.6038C27.5369 63.3368 27.3834 63.0999 27.1646 62.9352C26.6491 62.5134 26.0006 62.2884 25.3346 62.3002V62.3002Z" fill="#EAEAFF"/>
<path d="M75.1887 48.4812C74.9536 48.328 74.6835 48.2372 74.4037 48.2172C74.1047 48.1727 73.7993 48.2186 73.5267 48.3492C73.4978 48.365 73.464 48.3695 73.432 48.3617C73.4 48.354 73.3721 48.3345 73.3537 48.3072C73.3375 48.28 73.3327 48.2475 73.3404 48.2168C73.3481 48.186 73.3676 48.1596 73.3947 48.1432C73.7142 47.9843 74.0746 47.9268 74.4277 47.9782C74.7565 48.0022 75.073 48.1133 75.3447 48.3002C75.3687 48.3216 75.3839 48.3513 75.387 48.3834C75.3902 48.4154 75.3811 48.4475 75.3617 48.4732C75.3366 48.4953 75.3041 48.5071 75.2707 48.5062C75.2416 48.5055 75.2132 48.4968 75.1887 48.4812V48.4812Z" fill="#1F1F39"/>
<path d="M68.6747 48.4642C68.6552 48.4385 68.6461 48.4064 68.6493 48.3744C68.6524 48.3423 68.6676 48.3126 68.6917 48.2912C68.9623 48.1026 69.2794 47.9916 69.6087 47.9702C69.9621 47.9186 70.3229 47.9761 70.6427 48.1352C70.6706 48.1531 70.6905 48.1811 70.6981 48.2134C70.7058 48.2457 70.7006 48.2797 70.6837 48.3082C70.6657 48.3364 70.6375 48.3564 70.605 48.3641C70.5725 48.3718 70.5383 48.3664 70.5097 48.3492C70.237 48.2201 69.9323 48.1742 69.6337 48.2172C69.3538 48.2372 69.0837 48.328 68.8487 48.4812C68.827 48.4967 68.8013 48.5054 68.7747 48.5062C68.7373 48.5049 68.7018 48.4899 68.6747 48.4642V48.4642Z" fill="#1F1F39"/>
<path d="M79.8007 72.5122L82.2387 79.0122C84.3579 78.0121 86.3303 76.7265 88.1007 75.1912C87.6707 73.9382 87.3007 72.9912 87.3007 72.9912L79.8007 72.5122Z" fill="#F9D2DD"/>
<path d="M60.6496 79.1322L63.1956 72.3392L55.6986 72.8172C55.6906 72.8252 55.2436 73.9712 54.7646 75.4062C56.5465 76.9118 58.5267 78.1655 60.6496 79.1322V79.1322Z" fill="#F9D2DD"/>
<path d="M79.8007 72.5122L80.6437 74.7212L88.0827 75.1832C87.6777 74.0212 87.3007 72.9902 87.3007 72.9902L79.8007 72.5122Z" fill="#F9ACC0"/>
<path d="M63.2716 72.1002L62.4266 74.3092L54.8716 75.0432C55.2766 73.8892 55.7716 72.5782 55.7716 72.5782L63.2716 72.1002Z" fill="#F9ACC0"/>
<path d="M62.9636 62.3382C59.6906 63.8142 56.0946 68.3982 54.7726 73.7732H60.6246L59.6576 78.6532C63.2618 80.4901 67.2504 81.4453 71.2956 81.4402C75.3582 81.4467 79.3641 80.4869 82.9826 78.6402L81.9576 74.4112L87.8756 73.8832C87.8756 73.8912 86.5116 66.3072 80.2756 62.7202C75.2876 59.8402 67.5726 60.2732 62.9636 62.3382Z" fill="#3D5CFF"/>
<path d="M62.2207 68.2502L58.7407 73.7822L60.7157 73.7742L62.2207 68.2502Z" fill="#224BF4"/>
<path d="M81.9667 74.4082L83.7267 74.2572L79.8007 67.5572L81.9667 74.4082Z" fill="#224BF4"/>
<g opacity="0.451">
<g opacity="0.451">
<path opacity="0.451" d="M68.6996 73.4102C68.4715 73.4096 68.2487 73.3414 68.0593 73.2143C67.87 73.0871 67.7225 72.9067 67.6356 72.6957C67.5487 72.4848 67.5263 72.2529 67.5712 72.0292C67.6161 71.8056 67.7262 71.6002 67.8877 71.4391C68.0492 71.2781 68.2548 71.1684 68.4786 71.1242C68.7024 71.0799 68.9343 71.1029 69.145 71.1903C69.3556 71.2778 69.5357 71.4257 69.6624 71.6154C69.789 71.8051 69.8566 72.0281 69.8566 72.2562C69.8561 72.5626 69.734 72.8563 69.517 73.0727C69.3001 73.2891 69.0061 73.4105 68.6996 73.4102V73.4102Z" fill="#F9EDC7"/>
<path opacity="0.451" d="M74.1136 71.2252C73.8855 71.2246 73.6627 71.1564 73.4733 71.0293C73.284 70.9021 73.1365 70.7217 73.0496 70.5107C72.9627 70.2998 72.9403 70.0679 72.9852 69.8442C73.0301 69.6206 73.1402 69.4152 73.3017 69.2541C73.4632 69.0931 73.6688 68.9834 73.8926 68.9392C74.1164 68.8949 74.3483 68.9179 74.559 69.0053C74.7696 69.0928 74.9497 69.2407 75.0764 69.4304C75.203 69.6201 75.2706 69.8431 75.2706 70.0712C75.2701 70.3776 75.148 70.6713 74.931 70.8877C74.7141 71.1041 74.4201 71.2255 74.1136 71.2252V71.2252Z" fill="#F9EDC7"/>
<path opacity="0.451" d="M64.6916 67.3512C64.4635 67.3506 64.2407 67.2824 64.0513 67.1553C63.862 67.0281 63.7145 66.8477 63.6276 66.6367C63.5408 66.4258 63.5183 66.1939 63.5632 65.9702C63.6081 65.7466 63.7182 65.5412 63.8797 65.3801C64.0412 65.219 64.2468 65.1094 64.4706 65.0652C64.6944 65.0209 64.9263 65.0439 65.137 65.1313C65.3476 65.2188 65.5277 65.3667 65.6544 65.5564C65.781 65.7461 65.8486 65.9691 65.8486 66.1972C65.8481 66.5036 65.726 66.7973 65.509 67.0137C65.2921 67.2301 64.9981 67.3515 64.6916 67.3512V67.3512Z" fill="#F9EDC7"/>
<path opacity="0.451" d="M64.6916 78.7282C64.4635 78.7276 64.2407 78.6594 64.0513 78.5323C63.862 78.4051 63.7145 78.2247 63.6276 78.0137C63.5408 77.8028 63.5183 77.5709 63.5632 77.3472C63.6081 77.1236 63.7182 76.9182 63.8797 76.7571C64.0412 76.596 64.2468 76.4864 64.4706 76.4422C64.6944 76.3979 64.9263 76.4209 65.137 76.5083C65.3476 76.5958 65.5277 76.7437 65.6544 76.9334C65.781 77.1231 65.8486 77.3461 65.8486 77.5742C65.8481 77.8806 65.726 78.1743 65.509 78.3907C65.2921 78.6071 64.9981 78.7285 64.6916 78.7282V78.7282Z" fill="#F9EDC7"/>
<path opacity="0.451" d="M74.8577 79.8822C74.6296 79.8816 74.4067 79.8134 74.2174 79.6863C74.028 79.5591 73.8805 79.3787 73.7936 79.1677C73.7068 78.9568 73.6843 78.7249 73.7292 78.5012C73.7741 78.2776 73.8842 78.0722 74.0457 77.9111C74.2072 77.7501 74.4129 77.6404 74.6366 77.5962C74.8604 77.5519 75.0923 77.5749 75.303 77.6623C75.5137 77.7498 75.6937 77.8977 75.8204 78.0874C75.9471 78.2771 76.0147 78.5001 76.0147 78.7282C76.0141 79.0346 75.892 79.3283 75.675 79.5447C75.4581 79.7611 75.1641 79.8825 74.8577 79.8822V79.8822Z" fill="#F9EDC7"/>
<path opacity="0.451" d="M84.1146 75.0182C83.8865 75.0176 83.6637 74.9494 83.4743 74.8223C83.2849 74.6951 83.1375 74.5147 83.0506 74.3037C82.9637 74.0928 82.9413 73.8609 82.9862 73.6372C83.031 73.4136 83.1412 73.2082 83.3027 73.0471C83.4642 72.8861 83.6698 72.7764 83.8936 72.7322C84.1174 72.6879 84.3492 72.7109 84.5599 72.7983C84.7706 72.8858 84.9507 73.0337 85.0773 73.2234C85.204 73.4131 85.2716 73.6361 85.2716 73.8642C85.2711 74.1706 85.1489 74.4643 84.932 74.6807C84.715 74.8971 84.421 75.0185 84.1146 75.0182V75.0182Z" fill="#F9EDC7"/>
<path opacity="0.451" d="M57.0046 70.6482C56.7765 70.6476 56.5537 70.5794 56.3643 70.4523C56.175 70.3251 56.0275 70.1447 55.9406 69.9337C55.8537 69.7228 55.8313 69.4909 55.8762 69.2672C55.921 69.0436 56.0312 68.8382 56.1927 68.6772C56.3542 68.5161 56.5598 68.4065 56.7836 68.3622C57.0074 68.3179 57.2393 68.3409 57.4499 68.4283C57.6606 68.5158 57.8407 68.6637 57.9674 68.8534C58.094 69.0431 58.1616 69.2661 58.1616 69.4942C58.1611 69.8006 58.0389 70.0943 57.822 70.3107C57.605 70.5271 57.3111 70.6485 57.0046 70.6482V70.6482Z" fill="#F9EDC7"/>
<path opacity="0.451" d="M84.5276 68.2582C84.2995 68.2576 84.0767 68.1894 83.8873 68.0623C83.698 67.9351 83.5505 67.7547 83.4636 67.5437C83.3767 67.3328 83.3543 67.1009 83.3992 66.8772C83.4441 66.6536 83.5542 66.4482 83.7157 66.2872C83.8772 66.1261 84.0828 66.0165 84.3066 65.9722C84.5304 65.9279 84.7623 65.9509 84.973 66.0383C85.1836 66.1258 85.3637 66.2737 85.4904 66.4634C85.617 66.6531 85.6846 66.8761 85.6846 67.1042C85.6841 67.4106 85.562 67.7043 85.345 67.9207C85.1281 68.1371 84.8341 68.2585 84.5276 68.2582V68.2582Z" fill="#F9EDC7"/>
<path opacity="0.451" d="M77.4196 63.3112C77.1915 63.3106 76.9687 63.2424 76.7793 63.1153C76.5899 62.9881 76.4425 62.8077 76.3556 62.5967C76.2687 62.3858 76.2463 62.1539 76.2912 61.9302C76.336 61.7066 76.4462 61.5012 76.6077 61.3401C76.7692 61.1791 76.9748 61.0694 77.1986 61.0252C77.4224 60.9809 77.6542 61.0039 77.8649 61.0913C78.0756 61.1788 78.2557 61.3267 78.3823 61.5164C78.509 61.7061 78.5766 61.9291 78.5766 62.1572C78.5761 62.4636 78.4539 62.7573 78.237 62.9737C78.02 63.1901 77.726 63.3115 77.4196 63.3112V63.3112Z" fill="#F9EDC7"/>
</g>
</g>
<path d="M60.6986 73.8642C60.6782 73.8581 60.6607 73.8446 60.6498 73.8262C60.6389 73.8079 60.6352 73.7861 60.6396 73.7652L62.2946 67.6482C62.3007 67.6277 62.3143 67.6103 62.3326 67.5994C62.351 67.5884 62.3727 67.5848 62.3936 67.5892C62.4141 67.5955 62.4315 67.6093 62.4423 67.6278C62.453 67.6464 62.4564 67.6683 62.4516 67.6892L60.7986 73.8072C60.7941 73.8235 60.7845 73.838 60.7712 73.8484C60.7579 73.8588 60.7416 73.8647 60.7246 73.8652L60.6986 73.8642Z" fill="#1F1F39"/>
<path d="M81.8086 74.4082L79.6926 67.5532C79.689 67.5434 79.6875 67.5329 79.6881 67.5225C79.6887 67.512 79.6914 67.5018 79.6961 67.4924C79.7008 67.4831 79.7073 67.4748 79.7153 67.468C79.7233 67.4613 79.7326 67.4562 79.7426 67.4532C79.7524 67.4496 79.7628 67.448 79.7732 67.4486C79.7836 67.4491 79.7938 67.4517 79.8031 67.4563C79.8125 67.4609 79.8208 67.4673 79.8276 67.4752C79.8344 67.4831 79.8395 67.4923 79.8426 67.5022L81.9656 74.3582C81.9692 74.368 81.9707 74.3785 81.9701 74.3889C81.9695 74.3994 81.9668 74.4096 81.9621 74.4189C81.9575 74.4283 81.9509 74.4366 81.9429 74.4434C81.9349 74.4501 81.9256 74.4552 81.9156 74.4582C81.8986 74.4582 81.8906 74.4662 81.8826 74.4662C81.8657 74.4657 81.8494 74.4598 81.8361 74.4494C81.8227 74.439 81.8131 74.4245 81.8086 74.4082Z" fill="#1F1F39"/>
<path d="M63.4517 43.4432C64.5257 41.3002 66.0137 41.1352 66.0137 41.1352C66.5683 40.0057 67.4453 39.0661 68.534 38.4351C69.6226 37.804 70.8739 37.51 72.1297 37.5902C76.8407 37.5902 77.9157 42.2072 77.9157 42.2072C78.5128 42.3939 79.035 42.766 79.4064 43.2694C79.7779 43.7729 79.9794 44.3815 79.9817 45.0072C79.8987 47.1502 77.8987 52.0722 77.8987 52.0722L64.6907 49.4622C64.6907 49.4622 62.3767 45.5902 63.4517 43.4432Z" fill="white"/>
<path d="M63.6916 48.6042C63.3832 48.7824 63.12 49.0293 62.9224 49.3258C62.7249 49.6222 62.5984 49.9602 62.5527 50.3135C62.5071 50.6668 62.5435 51.0259 62.6592 51.3628C62.7748 51.6997 62.9666 52.0054 63.2196 52.2562C64.2366 53.4272 66.7986 53.1562 66.7986 53.1562L66.1126 48.9092C65.7758 48.6413 65.3719 48.4711 64.9449 48.4173C64.5179 48.3635 64.0844 48.4282 63.6916 48.6042V48.6042Z" fill="#F9ACC0"/>
<path d="M79.8416 48.6042C80.1492 48.7832 80.4116 49.0305 80.6084 49.3269C80.8052 49.6234 80.9313 49.9612 80.9768 50.3142C81.0223 50.6671 80.9861 51.0258 80.8709 51.3625C80.7558 51.6993 80.5648 52.005 80.3126 52.2562C79.2956 53.4272 76.7336 53.1552 76.7336 53.1552L77.4196 48.9092C77.7565 48.6411 78.1607 48.4708 78.5879 48.417C79.015 48.3632 79.4488 48.428 79.8416 48.6042V48.6042Z" fill="#F9ACC0"/>
<path d="M66.3276 52.2892C66.2639 51.8339 66.0845 51.4025 65.8066 51.0362C65.4359 50.5312 64.9107 50.1609 64.3106 49.9812C64.2848 49.9737 64.2627 49.9568 64.2486 49.9339C64.2346 49.911 64.2296 49.8836 64.2346 49.8572C64.2422 49.831 64.2593 49.8085 64.2827 49.7944C64.3061 49.7803 64.3339 49.7756 64.3606 49.7812C65.01 49.9742 65.5768 50.3777 65.9716 50.9282C66.2765 51.3228 66.468 51.7929 66.5256 52.2882C66.5256 52.3147 66.5151 52.3402 66.4964 52.3589C66.4776 52.3777 66.4522 52.3882 66.4256 52.3882C66.3991 52.3882 66.3737 52.3777 66.3549 52.3589C66.3362 52.3402 66.3256 52.3147 66.3256 52.2882L66.3276 52.2892Z" fill="#1F1F39"/>
<path d="M77.5266 52.1732C77.5016 52.1611 77.4823 52.1396 77.473 52.1134C77.4636 52.0872 77.4649 52.0584 77.4766 52.0332C77.7513 51.4957 78.0993 50.9989 78.5106 50.5572C78.788 50.2187 79.1587 49.969 79.5766 49.8392C79.5896 49.8369 79.603 49.8372 79.6159 49.8401C79.6287 49.843 79.6409 49.8484 79.6517 49.856C79.6625 49.8636 79.6717 49.8733 79.6787 49.8845C79.6857 49.8957 79.6905 49.9082 79.6926 49.9212C79.6952 49.9344 79.6951 49.948 79.6923 49.9612C79.6895 49.9744 79.684 49.9869 79.6763 49.9979C79.6685 50.0089 79.6586 50.0182 79.6472 50.0253C79.6357 50.0324 79.6229 50.0372 79.6096 50.0392C79.2349 50.166 78.9029 50.3945 78.6506 50.6992C78.256 51.1232 77.9225 51.6001 77.6596 52.1162C77.6522 52.1348 77.6396 52.151 77.6233 52.1627C77.607 52.1744 77.5877 52.1811 77.5676 52.1822C77.5533 52.1841 77.5388 52.1809 77.5266 52.1732V52.1732Z" fill="#1F1F39"/>
<path d="M66.5257 53.1462C66.9545 54.6152 67.7983 55.9291 68.9557 56.9302L68.6167 61.6132C68.6167 61.6132 69.0877 62.6442 71.5837 62.6442C74.2837 62.6442 75.0307 61.6132 75.0307 61.6132L74.8987 57.0052C74.8987 57.0052 76.5847 56.7332 77.3987 53.6992C77.8856 51.8363 78.0229 49.8992 77.8037 47.9862C77.8037 47.9862 73.8157 48.6042 72.4687 46.9552C71.1217 45.3062 69.7657 43.6492 67.8067 44.4742C67.2461 44.7491 66.7914 45.2004 66.5123 45.7588C66.2331 46.3173 66.1451 46.9519 66.2617 47.5652C66.0344 49.4271 66.1237 51.314 66.5257 53.1462V53.1462Z" fill="#F9D2DD"/>
<path d="M69.8326 50.9452C69.6557 50.9289 69.4922 50.8436 69.3777 50.7077C69.2632 50.5719 69.2067 50.3964 69.2206 50.2192C69.207 50.0422 69.2636 49.867 69.3781 49.7313C69.4926 49.5957 69.6559 49.5105 69.8326 49.4942C70.0094 49.5105 70.1727 49.5957 70.2872 49.7313C70.4017 49.867 70.4583 50.0422 70.4446 50.2192C70.4585 50.3964 70.4021 50.5719 70.2876 50.7077C70.173 50.8436 70.0096 50.9289 69.8326 50.9452V50.9452Z" fill="#1F1F39"/>
<path d="M74.2877 50.9452C74.1107 50.9289 73.9473 50.8436 73.8327 50.7077C73.7182 50.5719 73.6618 50.3964 73.6757 50.2192C73.662 50.0422 73.7186 49.867 73.8331 49.7313C73.9476 49.5957 74.1109 49.5105 74.2877 49.4942C74.4644 49.5105 74.6277 49.5957 74.7422 49.7313C74.8567 49.867 74.9133 50.0422 74.8997 50.2192C74.9135 50.3964 74.8571 50.5719 74.7426 50.7077C74.628 50.8436 74.4646 50.9289 74.2877 50.9452V50.9452Z" fill="#1F1F39"/>
<path d="M71.5916 51.2172C71.7986 51.6292 72.3356 51.4232 72.3356 51.4232C72.3356 51.4232 71.7986 51.2832 71.7986 50.8712C71.7986 50.4592 71.7576 49.0492 71.7576 49.0492C71.5821 49.7576 71.526 50.4903 71.5916 51.2172V51.2172Z" fill="#1F1F39"/>
<path d="M68.7656 60.3432C68.8066 60.3302 73.2376 58.6202 74.0716 57.8372C74.0716 57.3592 74.0886 57.0042 74.0886 57.0042C73.2163 57.3768 72.2627 57.5187 71.3196 57.4162C70.5064 57.4201 69.7013 57.2546 68.9556 56.9302C68.9656 57.3502 68.8066 60.1782 68.7656 60.3432Z" fill="#F9ACC0"/>
<path d="M75.4026 52.7342C74.6766 52.7342 74.0886 52.3652 74.0886 51.9092C74.0886 51.4532 74.6766 51.0852 75.4026 51.0852C76.1286 51.0852 76.7166 51.4542 76.7166 51.9092C76.7166 52.3642 76.1286 52.7342 75.4026 52.7342Z" fill="#F9ACC0"/>
<path d="M68.4516 52.7342C67.7256 52.7342 67.1376 52.3652 67.1376 51.9092C67.1376 51.4532 67.7256 51.0852 68.4516 51.0852C69.1776 51.0852 69.7656 51.4542 69.7656 51.9092C69.7656 52.3642 69.1776 52.7342 68.4516 52.7342Z" fill="#F9ACC0"/>
<path d="M69.7826 53.7762C70.8465 54.1023 71.9786 54.135 73.0595 53.871C74.1404 53.607 75.1299 53.056 75.9236 52.2762C76.8906 51.1962 76.9236 47.7252 76.9236 47.7252L77.9316 47.3952C77.9316 47.3952 78.2006 53.8562 76.8906 55.5952C76.2811 56.3737 75.4829 56.9836 74.5717 57.3674C73.6605 57.7512 72.6665 57.896 71.6836 57.7882C70.8433 57.7743 70.0183 57.5608 69.2767 57.1652C68.5351 56.7697 67.8982 56.2034 67.4186 55.5132C66.1006 53.7762 65.6006 47.7302 65.6006 47.7302L66.2616 46.5762C66.2616 46.5762 66.8006 53.0232 69.7826 53.7762Z" fill="white"/>
<path d="M72.0456 52.5122C72.4003 52.3638 72.7341 52.1698 73.0386 51.9352C73.0386 51.9352 73.2036 51.8532 73.2866 51.9352C73.2235 52.1801 73.1101 52.4092 72.9536 52.6079C72.7971 52.8066 72.601 52.9705 72.3776 53.0892C72.1541 53.1632 71.9127 53.1631 71.6893 53.0889C71.4659 53.0147 71.2724 52.8703 71.1376 52.6772C70.8896 52.3472 71.2206 52.4292 71.2206 52.4292C71.4859 52.5186 71.7679 52.547 72.0456 52.5122V52.5122Z" fill="#F95368"/>
</svg>
