<svg width="25" height="25" viewBox="0 0 25 25" fill="none" xmlns="http://www.w3.org/2000/svg">
<path d="M24.0986 0.0332031V24.0332H0.0986328V0.0332031H24.0986Z" fill="white" fill-opacity="0.01"/>
<path d="M12.0986 20.9832C11.8519 20.9834 11.6107 20.9103 11.4056 20.7732L8.79863 19.0332H5.09863C4.30298 19.0332 3.53992 18.7171 2.97731 18.1545C2.4147 17.5919 2.09863 16.8289 2.09863 16.0332V6.0332C2.09863 5.23755 2.4147 4.47449 2.97731 3.91188C3.53992 3.34927 4.30298 3.0332 5.09863 3.0332H19.0986C19.8943 3.0332 20.6573 3.34927 21.22 3.91188C21.7826 4.47449 22.0986 5.23755 22.0986 6.0332V16.0332C22.0986 16.8289 21.7826 17.5919 21.22 18.1545C20.6573 18.7171 19.8943 19.0332 19.0986 19.0332H15.3986L12.7896 20.7732C12.585 20.9098 12.3446 20.9828 12.0986 20.9832ZM15.5986 10.0332C15.302 10.0332 15.012 10.1212 14.7653 10.286C14.5186 10.4508 14.3263 10.6851 14.2128 10.9592C14.0993 11.2333 14.0696 11.5349 14.1275 11.8258C14.1853 12.1168 14.3282 12.3841 14.538 12.5939C14.7478 12.8036 15.015 12.9465 15.306 13.0044C15.597 13.0623 15.8986 13.0326 16.1727 12.919C16.4467 12.8055 16.681 12.6132 16.8458 12.3666C17.0107 12.1199 17.0986 11.8299 17.0986 11.5332C17.0986 11.1354 16.9406 10.7538 16.6593 10.4725C16.378 10.1912 15.9965 10.0332 15.5986 10.0332ZM8.59863 10.0332C8.30196 10.0332 8.01195 10.1212 7.76528 10.286C7.5186 10.4508 7.32634 10.6851 7.21281 10.9592C7.09928 11.2333 7.06958 11.5349 7.12745 11.8258C7.18533 12.1168 7.32819 12.3841 7.53797 12.5939C7.74775 12.8036 8.01503 12.9465 8.306 13.0044C8.59697 13.0623 8.89857 13.0326 9.17266 12.919C9.44675 12.8055 9.68102 12.6132 9.84584 12.3666C10.0107 12.1199 10.0986 11.8299 10.0986 11.5332C10.0986 11.1354 9.9406 10.7538 9.65929 10.4725C9.37799 10.1912 8.99646 10.0332 8.59863 10.0332Z" fill="#F4F3FD"/>
</svg>
