<svg width="19" height="19" viewBox="0 0 19 19" fill="none" xmlns="http://www.w3.org/2000/svg">
<path d="M17.4767 18.2438C17.3671 18.2441 17.2585 18.2227 17.1573 18.1809C17.056 18.139 16.964 18.0774 16.8867 17.9998L13.8257 14.9388C12.2491 16.2135 10.2435 16.8347 8.22239 16.6745C6.20127 16.5142 4.31866 15.5847 2.96262 14.0775C1.60657 12.5702 0.880442 10.6002 0.933909 8.57345C0.987376 6.5467 1.81636 4.6177 3.24999 3.18407C4.68362 1.75044 6.61262 0.921458 8.63937 0.867991C10.6661 0.814524 12.6362 1.54065 14.1434 2.8967C15.6506 4.25275 16.5801 6.13536 16.7404 8.15647C16.9006 10.1776 16.2794 12.1832 15.0047 13.7598L18.0657 16.8208C18.1825 16.9372 18.2622 17.0857 18.2945 17.2475C18.3268 17.4092 18.3104 17.5769 18.2473 17.7294C18.1842 17.8818 18.0773 18.012 17.9401 18.1036C17.8029 18.1952 17.6416 18.244 17.4767 18.2438ZM8.84769 2.53278C7.61156 2.53278 6.40319 2.89933 5.37538 3.58609C4.34757 4.27285 3.5465 5.24897 3.07345 6.39101C2.6004 7.53304 2.47663 8.78971 2.71779 10.0021C2.95894 11.2145 3.5542 12.3281 4.42828 13.2022C5.30236 14.0763 6.416 14.6715 7.62838 14.9127C8.84076 15.1538 10.0974 15.0301 11.2395 14.557C12.3815 14.084 13.3576 13.2829 14.0444 12.2551C14.7311 11.2273 15.0977 10.0189 15.0977 8.78278C15.0958 7.12574 14.4368 5.53711 13.2651 4.36541C12.0934 3.19371 10.5047 2.53463 8.84769 2.53278Z" fill="#3D5CFF"/>
</svg>
